# xmcd
#
# Track frame offsets: 
#        150
#        10902
#        24071
#        35661
#        48194
#        60476
#        71629
#        83427
#        95752
#        109094
#        119095
#        132577
#        143142
#        153899
#        166130
#        178022
#        189417
#        203388
#        213837
#        225509
#
# Disc length: 3220 seconds
#
# Revision: 1
# Processed by: cddbd v1.5.2PL0 Copyright (c) Steve Scherf et al.
# Submitted via: ExactAudioCopy v1.3
#
DISCID=010c9214
DTITLE=Various Artist - The Sun Blues Story CD1
DYEAR=2012
DGENRE=Blues
TTITLE0=B.B. King - Fine Looking Woman
TTITLE1=Howlin' Wolf - Moanin' At Midnight
TTITLE2=Hot 'Shot' Love - Harmonica Jam
TTITLE3=Joe Hill Louis - Boogie In The Park
TTITLE4=Rufus Thomas Jr. - Save That Money
TTITLE5=Willie Nix - Lomesome Bedroom Blues
TTITLE6=D. A. Hunt - Greyhound Blues
TTITLE7='Harmonica' Frank - Howlin' Tom Cat
TTITLE8=Little Junior's Blue Flames - Fussin' and Fightin' Blues
TTITLE9=Lost John Hunter - Cool Down Mama
TTITLE10=Jimmy And Walter - Easy
TTITLE11=B.B. King - Don't You Want A Man Like Me
TTITLE12=James Cotton - My Baby
TTITLE13=Billy Emerson - Something For Nothing
TTITLE14=Willie Nix - Truckin' Little Woman
TTITLE15=Doctor Ross - Jukebox Boogie
TTITLE16=Handy Jackson - Got My Application,Baby
TTITLE17=Jimmy De Berry - Take A Little Chance
TTITLE18=Little Milton - Lookin' For My Baby
TTITLE19=Rufus Thomas Jr. - Night Workin' Blues
EXTD=
EXTT0=
EXTT1=
EXTT2=
EXTT3=
EXTT4=
EXTT5=
EXTT6=
EXTT7=
EXTT8=
EXTT9=
EXTT10=
EXTT11=
EXTT12=
EXTT13=
EXTT14=
EXTT15=
EXTT16=
EXTT17=
EXTT18=
EXTT19=
PLAYORDER=
